<?xml version="1.0" encoding="UTF-8"?>
<svg version="1.1" xmlns="http://www.w3.org/2000/svg" width="264" height="81">
<path d="M0 0 C2.125 1.9375 2.125 1.9375 4 4 C4.99 4.66 5.98 5.32 7 6 C6.67 7.65 6.34 9.3 6 11 C9.3 10.67 12.6 10.34 16 10 C17 14 17 14 16 17 C16.639375 17.103125 17.27875 17.20625 17.9375 17.3125 C18.618125 17.539375 19.29875 17.76625 20 18 C21.11474363 21.3442309 20.96108834 21.77984218 19.70703125 24.87890625 C19.40933838 25.63059082 19.11164551 26.38227539 18.80493164 27.15673828 C18.4774292 27.95063965 18.14992676 28.74454102 17.8125 29.5625 C15.20676057 35.74255379 15.20676057 35.74255379 13.203125 42.12890625 C12.06738575 46.5541342 10.82618331 48.44778974 6.97265625 51.0234375 C3.58138189 52.85105965 0.08091337 54.39202273 -3.4609375 55.90234375 C-6.28992152 57.1253353 -9.08168457 58.41641203 -11.875 59.71875 C-15.76237107 61.52348833 -19.65054905 63.32552351 -23.5546875 65.09375 C-24.36405762 65.46177734 -25.17342773 65.82980469 -26.00732422 66.20898438 C-28 67 -28 67 -30 67 C-32.06102644 63.90846035 -32.3678274 62.60155207 -32.78125 59.01953125 C-32.90008545 58.02783936 -33.0189209 57.03614746 -33.14135742 56.0144043 C-33.3188855 54.42946167 -33.3188855 54.42946167 -33.5 52.8125 C-33.75627357 50.62757637 -34.01278446 48.44268057 -34.26953125 46.2578125 C-34.39279785 45.18821289 -34.51606445 44.11861328 -34.64306641 43.01660156 C-35.03280811 39.72272438 -35.47259217 36.4380068 -35.92358398 33.15209961 C-36.61122581 28.03327096 -37.19339868 22.91003058 -37.4375 17.75 C-37.47746094 16.91984375 -37.51742187 16.0896875 -37.55859375 15.234375 C-36.72393891 11.89575566 -34.76815879 10.96297957 -32 9 C-27.61090058 6.94667296 -23.04872624 5.35312947 -18.5 3.6875 C-17.27667969 3.22021484 -16.05335937 2.75292969 -14.79296875 2.27148438 C-13.61347656 1.83513672 -12.43398438 1.39878906 -11.21875 0.94921875 C-10.14560547 0.55049561 -9.07246094 0.15177246 -7.96679688 -0.2590332 C-4.80032141 -1.04987035 -3.07582014 -1.01824638 0 0 Z " fill="#2896CC" transform="translate(48,6)"/>
<path d="M0 0 C1.9375 0.3125 1.9375 0.3125 4 1 C5.11474363 4.3442309 4.96108834 4.77984218 3.70703125 7.87890625 C3.26049194 9.00643311 3.26049194 9.00643311 2.80493164 10.15673828 C2.4774292 10.95063965 2.14992676 11.74454102 1.8125 12.5625 C-0.79323943 18.74255379 -0.79323943 18.74255379 -2.796875 25.12890625 C-3.93261425 29.5541342 -5.17381669 31.44778974 -9.02734375 34.0234375 C-12.41861811 35.85105965 -15.91908663 37.39202273 -19.4609375 38.90234375 C-22.28992152 40.1253353 -25.08168457 41.41641203 -27.875 42.71875 C-31.76237107 44.52348833 -35.65054905 46.32552351 -39.5546875 48.09375 C-40.36405762 48.46177734 -41.17342773 48.82980469 -42.00732422 49.20898438 C-44 50 -44 50 -46 50 C-45.55052002 41.45988044 -42.85091417 33.98466367 -40 26 C-40.66 25.67 -41.32 25.34 -42 25 C-41.01 24.67 -40.02 24.34 -39 24 C-38.938125 23.113125 -38.87625 22.22625 -38.8125 21.3125 C-37.74752133 16.97066388 -36.67465558 15.5722589 -33 13 C-29.33408579 12.29878434 -25.72753653 12.07180893 -22 12 C-22 12.99 -22 13.98 -22 15 C-21.37351562 14.71125 -20.74703125 14.4225 -20.1015625 14.125 C-19.28429687 13.75375 -18.46703125 13.3825 -17.625 13 C-16.81289063 12.62875 -16.00078125 12.2575 -15.1640625 11.875 C-13 11 -13 11 -11 11 C-11 9.35 -11 7.7 -11 6 C-11.66 6 -12.32 6 -13 6 C-13 6.66 -13 7.32 -13 8 C-17.29 8.66 -21.58 9.32 -26 10 C-26 9.01 -26 8.02 -26 7 C-23.61009899 5.96287315 -21.21473126 4.94531981 -18.8125 3.9375 C-17.80219727 3.49567383 -17.80219727 3.49567383 -16.77148438 3.04492188 C-12.75145599 1.37808084 -10.17379987 0.62860862 -6 2 C-5.071875 2.185625 -4.14375 2.37125 -3.1875 2.5625 C-2.465625 2.706875 -1.74375 2.85125 -1 3 C-0.67 2.01 -0.34 1.02 0 0 Z " fill="#72C8F6" transform="translate(64,23)"/>
<path d="M0 0 C1.91562291 2.87343437 2.29210899 3.77503541 2.6328125 7.01171875 C2.71660156 7.76904297 2.80039062 8.52636719 2.88671875 9.30664062 C2.96535156 10.09232422 3.04398438 10.87800781 3.125 11.6875 C3.21136719 12.48478516 3.29773438 13.28207031 3.38671875 14.10351562 C3.59848472 16.06823326 3.80021473 18.03402796 4 20 C8.11881194 17.84853026 8.11881194 17.84853026 10.3125 13.8125 C10.539375 12.884375 10.76625 11.95625 11 11 C11.66 11 12.32 11 13 11 C13 10.34 13 9.68 13 9 C25.48519362 2.29612756 25.48519362 2.29612756 32 2 C29.3144406 4.6855594 26.62378672 5.06049974 23 6 C23 6.99 23 7.98 23 9 C24.216875 8.67 25.43375 8.34 26.6875 8 C29.87210604 7.19677787 32.6972843 6.79358027 36 7 C36 6.34 36 5.68 36 5 C36.66 5 37.32 5 38 5 C38 6.65 38 8.3 38 10 C36.73308493 10.67408308 35.46129251 11.33900497 34.1875 12 C33.47980469 12.37125 32.77210937 12.7425 32.04296875 13.125 C30 14 30 14 27 14 C27 13.01 27 12.02 27 11 C19.84243131 11.79555192 19.84243131 11.79555192 13.4375 14.75 C11.75023864 17.39093083 10.92780488 20.01777003 10 23 C9.34 23.33 8.68 23.66 8 24 C8.33 24.99 8.66 25.98 9 27 C8.56274414 29.17651367 8.56274414 29.17651367 7.78515625 31.66796875 C7.37426758 33.00698242 7.37426758 33.00698242 6.95507812 34.37304688 C6.66052734 35.30181641 6.36597656 36.23058594 6.0625 37.1875 C5.77181641 38.12787109 5.48113281 39.06824219 5.18164062 40.03710938 C4.46218113 42.36060971 3.73470814 44.68128518 3 47 C2.34 46.67 1.68 46.34 1 46 C0.52929688 43.93725586 0.52929688 43.93725586 0.21875 41.21484375 C0.09991455 40.21622314 -0.0189209 39.21760254 -0.14135742 38.1887207 C-0.25970947 37.11581787 -0.37806152 36.04291504 -0.5 34.9375 C-0.756385 32.74217285 -1.01289578 30.54686038 -1.26953125 28.3515625 C-1.39279785 27.27036133 -1.51606445 26.18916016 -1.64306641 25.07519531 C-1.95493576 22.38825528 -2.2868416 19.7056436 -2.63671875 17.0234375 C-2.73082031 16.30164307 -2.82492187 15.57984863 -2.921875 14.83618164 C-3.05335937 13.83445923 -3.05335937 13.83445923 -3.1875 12.8125 C-3.70867319 8.83378763 -4.09825939 5.01351832 -4 1 C-3.01 1.33 -2.02 1.66 -1 2 C-0.67 1.34 -0.34 0.68 0 0 Z " fill="#2E9999" transform="translate(15,24)"/>
<path d="M0 0 C2.80625365 2.05791934 4.75286154 3.52549975 5.34765625 7.07421875 C5.375 9.25 5.375 9.25 5 13 C4 14 4 14 0.0625 14.3125 C-4.66157352 14.76601106 -8.52316641 16.23652343 -12.8359375 18.16015625 C-15 19 -15 19 -18 19 C-18.33 19.99 -18.66 20.98 -19 22 C-20.84765625 22.73046875 -20.84765625 22.73046875 -23.0625 23.1875 C-23.79597656 23.34605469 -24.52945312 23.50460938 -25.28515625 23.66796875 C-25.85105469 23.77753906 -26.41695312 23.88710938 -27 24 C-27.33 22.35 -27.66 20.7 -28 19 C-28.66 19 -29.32 19 -30 19 C-29.81835938 17.14306641 -29.81835938 17.14306641 -29 15 C-26.79101562 13.75146484 -26.79101562 13.75146484 -23.90625 12.7109375 C-22.87628906 12.32679687 -21.84632812 11.94265625 -20.78515625 11.546875 C-19.70105469 11.16015625 -18.61695313 10.7734375 -17.5 10.375 C-15.36236491 9.59721601 -13.22681806 8.81366046 -11.09375 8.0234375 C-10.14177734 7.68231934 -9.18980469 7.34120117 -8.20898438 6.98974609 C-5.84031921 6.20845528 -5.84031921 6.20845528 -5 4 C-7.64 4.33 -10.28 4.66 -13 5 C-13.33 5.99 -13.66 6.98 -14 8 C-19.22222222 11 -19.22222222 11 -22 11 C-21.814375 10.38125 -21.62875 9.7625 -21.4375 9.125 C-20.76313824 6.95839822 -20.76313824 6.95839822 -22 5 C-19.27581165 3.96378723 -16.54697784 2.94588063 -13.8125 1.9375 C-12.65911133 1.49567383 -12.65911133 1.49567383 -11.48242188 1.04492188 C-4.20786081 -1.60888796 -4.20786081 -1.60888796 0 0 Z " fill="#A5D4F2" transform="translate(48,6)"/>
<path d="M0 0 C0.66 0.33 1.32 0.66 2 1 C0.66666667 6.33333333 -0.66666667 11.66666667 -2 17 C-1.071875 16.38125 -0.14375 15.7625 0.8125 15.125 C4.86790448 12.78407546 8.83740043 12.13623609 13.42578125 11.44140625 C16.15953617 11.05192722 16.15953617 11.05192722 19.25 9.8125 C22.77075145 8.77227798 25.43874654 9.28774931 29 10 C28.95288086 11.77050781 28.95288086 11.77050781 28 14 C25.57926675 15.42474295 23.31557275 16.56318314 20.75390625 17.671875 C20.02759506 17.99915588 19.30128387 18.32643677 18.55296326 18.66363525 C17.01679655 19.35275407 15.47746699 20.03485888 13.93530273 20.71044922 C11.56932512 21.74700984 9.21286293 22.80302528 6.85742188 23.86328125 C5.36509568 24.52979416 3.87227304 25.19519689 2.37890625 25.859375 C1.31634361 26.33271271 1.31634361 26.33271271 0.23231506 26.81561279 C-4.76353876 29 -4.76353876 29 -7 29 C-6.55052002 20.45988044 -3.85091417 12.98466367 -1 5 C-1.66 4.67 -2.32 4.34 -3 4 C-2.01 3.67 -1.02 3.34 0 3 C0 2.01 0 1.02 0 0 Z " fill="#58B5E7" transform="translate(25,44)"/>
<path d="M0 0 C0.66 0.33 1.32 0.66 2 1 C1.67 2.65 1.34 4.3 1 6 C4.3 5.67 7.6 5.34 11 5 C12.10191901 9.40767604 11.58706842 10.8922935 10 15 C7.36005614 15.07542697 5.13160731 15.03374546 2.5625 14.375 C-0.81182463 13.8811964 -2.78851535 14.84871305 -6 16 C-7.66395973 16.3067332 -9.33095879 16.59724352 -11 16.875 C-15.60161003 17.73304458 -18.26058097 19.26383973 -22 22 C-22.99 22 -23.98 22 -25 22 C-25 22.66 -25 23.32 -25 24 C-25.66 24 -26.32 24 -27 24 C-27.33 25.98 -27.66 27.96 -28 30 C-28.99 30.33 -29.98 30.66 -31 31 C-31 30.34 -31 29.68 -31 29 C-30.34 29 -29.68 29 -29 29 C-28.9175 27.783125 -28.835 26.56625 -28.75 25.3125 C-28.25375025 21.18924837 -26.87296021 19.05252022 -24 16 C-23.67 15.34 -23.34 14.68 -23 14 C-21.02646943 13.23984651 -19.01994846 12.56396986 -17 11.9375 C-13.20553957 11.00261214 -13.20553957 11.00261214 -10 9 C-8.48530552 8.76807135 -6.96245438 8.58784762 -5.4375 8.4375 C-4.61121094 8.35371094 -3.78492187 8.26992188 -2.93359375 8.18359375 C-2.29550781 8.12300781 -1.65742187 8.06242187 -1 8 C-0.67 5.36 -0.34 2.72 0 0 Z " fill="#2BD0AA" transform="translate(53,11)"/>
<path d="M0 0 C2.01537075 3.02305612 2.31549373 4.07080248 2.6328125 7.53515625 C2.71660156 8.42783203 2.80039062 9.32050781 2.88671875 10.24023438 C2.96535156 11.17158203 3.04398438 12.10292969 3.125 13.0625 C3.21136719 13.96677734 3.29773438 14.87105469 3.38671875 15.80273438 C3.87806127 21.25819615 4.06366957 26.62268689 3.93310547 32.09936523 C3.78415997 34.01142576 3.78415997 34.01142576 5 35 C4.96219927 36.64869317 4.84529698 38.29594032 4.6875 39.9375 C4.56955078 41.28134766 4.56955078 41.28134766 4.44921875 42.65234375 C4 45 4 45 2 47 C0.45875785 42.03915204 -0.49390114 37.2225316 -1.0703125 32.0546875 C-1.15626678 31.32178497 -1.24222107 30.58888245 -1.33078003 29.83377075 C-1.50990113 28.29623781 -1.68622592 26.75837673 -1.85986328 25.22021484 C-2.12513024 22.87384798 -2.39974042 20.52871506 -2.67578125 18.18359375 C-2.84950691 16.68235505 -3.02270231 15.18105487 -3.1953125 13.6796875 C-3.27653351 12.98374481 -3.35775452 12.28780212 -3.44143677 11.57077026 C-3.83794997 8.02861822 -4.08874657 4.56451009 -4 1 C-3.01 1.33 -2.02 1.66 -1 2 C-0.67 1.34 -0.34 0.68 0 0 Z " fill="#0D5189" transform="translate(15,24)"/>
<path d="M0 0 C3.36367994 1.20131426 4.42261672 0.25129827 7.625 -1.0625 C9.9375 -0.1875 9.9375 -0.1875 11.625 0.9375 C11.81892201 6.46427733 11.3729503 10.69364911 9.625 15.9375 C8.635 15.9375 7.645 15.9375 6.625 15.9375 C6.955 11.6475 7.285 7.3575 7.625 2.9375 C6.305 3.2675 4.985 3.5975 3.625 3.9375 C2.635 7.5675 1.645 11.1975 0.625 14.9375 C-0.695 15.2675 -2.015 15.5975 -3.375 15.9375 C-3.045 11.6475 -2.715 7.3575 -2.375 2.9375 C-3.695 2.9375 -5.015 2.9375 -6.375 2.9375 C-7.86 9.3725 -7.86 9.3725 -9.375 15.9375 C-10.695 15.6075 -12.015 15.2775 -13.375 14.9375 C-12.385 10.3175 -11.395 5.6975 -10.375 0.9375 C-8.725 0.6075 -7.075 0.2775 -5.375 -0.0625 C-2.375 -1.0625 -2.375 -1.0625 0 0 Z " fill="#CCE6F0" transform="translate(117.375,32.0625)"/>
<path d="M0 0 C2.248125 -0.103125 4.49625 -0.20625 6.8125 -0.3125 C8.70935547 -0.39951172 8.70935547 -0.39951172 10.64453125 -0.48828125 C14 0 14 0 15.89453125 2.30859375 C17.84193531 7.0498001 18.65978813 10.97772058 16.75 15.8125 C15 19 15 19 12 21 C7.98500069 21.26874159 4.02862593 21.08663712 0 21 C0 14.07 0 7.14 0 0 Z M3 3 C3 7.95 3 12.9 3 18 C8.17446776 18.40914759 8.17446776 18.40914759 13 17 C14.62824168 13.74351663 14.49521025 10.51599278 14 7 C13.20426487 4.38239295 13.20426487 4.38239295 11 3 C8.24499627 2.67396406 5.7929024 2.81685886 3 3 Z " fill="#CDE7F0" transform="translate(188,27)"/>
<path d="M0 0 C2.6875 -0.375 2.6875 -0.375 5 0 C6 1 6 1 6.1328125 2.8125 C6.13023438 3.534375 6.12765625 4.25625 6.125 5 C6.12886719 6.0828125 6.12886719 6.0828125 6.1328125 7.1875 C6 9 6 9 5 10 C3.0509375 10.1546875 3.0509375 10.1546875 1.0625 10.3125 C-5.33262114 10.94487243 -10.77785353 13.56631492 -16.58984375 16.15234375 C-19.69757924 17.24533986 -21.83641892 16.73571653 -25 16 C-24 13 -24 13 -22.11401367 12.00439453 C-20.90322144 11.57296143 -20.90322144 11.57296143 -19.66796875 11.1328125 C-18.78689453 10.80410156 -17.90582031 10.47539062 -16.99804688 10.13671875 C-15.13721034 9.46686932 -13.27524152 8.80015637 -11.41210938 8.13671875 C-6.20007732 6.18552831 -3.21145236 4.75163869 0 0 Z " fill="#C6E8F4" transform="translate(47,10)"/>
<path d="M0 0 C2.97 0 5.94 0 9 0 C6.60709517 4.78580966 5.30986764 5.13452274 0.53125 7.234375 C-0.10486206 7.51726379 -0.74097412 7.80015259 -1.3963623 8.09161377 C-2.7386312 8.68577665 -4.08364783 9.27376557 -5.43115234 9.85595703 C-7.49782567 10.74906037 -9.55596247 11.65980025 -11.61328125 12.57421875 C-21.65745458 17 -21.65745458 17 -24 17 C-23.67 15.68 -23.34 14.36 -23 13 C-22.21625 12.87625 -21.4325 12.7525 -20.625 12.625 C-17.85942178 12.20882007 -17.85942178 12.20882007 -16 10 C-15.01 9.67 -14.02 9.34 -13 9 C-12.54625 8.195625 -12.0925 7.39125 -11.625 6.5625 C-9.68040647 3.49602559 -8.45710795 2.92751677 -5 2 C-3.68 2 -2.36 2 -1 2 C-0.67 1.34 -0.34 0.68 0 0 Z " fill="#3FA4EA" transform="translate(42,56)"/>
<path d="M0 0 C2.47321652 3.70982478 2.53743695 6.70050444 2 11 C0.9375 13.4375 0.9375 13.4375 -1 15 C-5.01276815 16.18896834 -7.09238485 16.40553017 -10.9375 14.6875 C-13.64993626 11.15311336 -13.52106621 8.68862839 -13.46875 4.33984375 C-12.91991853 1.60025999 -12.16992618 0.70379389 -10 -1 C-6.30087597 -2.65822801 -3.60160847 -1.56591673 0 0 Z M-9 2 C-10.52150158 5.04300316 -10.23899393 7.654085 -10 11 C-7.31126059 13.24586971 -7.31126059 13.24586971 -4.9375 12.8125 C-2.64006462 12.0589579 -2.64006462 12.0589579 -1 9 C-1 5.91666667 -1 5.91666667 -2 3 C-4.8412742 0.82168978 -5.53245292 0.84415097 -9 2 Z " fill="#CEE9F4" transform="translate(222,33)"/>
<path d="M0 0 C0.66 0 1.32 0 2 0 C1.85904936 1.6254308 1.71207913 3.25034051 1.5625 4.875 C1.48128906 5.77992187 1.40007812 6.68484375 1.31640625 7.6171875 C1 10 1 10 0 12 C0.9075 11.154375 1.815 10.30875 2.75 9.4375 C4.296875 7.99609375 4.296875 7.99609375 6 7 C7.32 7.33 8.64 7.66 10 8 C7.69 10.31 5.38 12.62 3 15 C3.66 15.94875 4.32 16.8975 5 17.875 C7 21 7 21 7 23 C5.68 23 4.36 23 3 23 C1.25 20.5 1.25 20.5 0 18 C-0.99 20.475 -0.99 20.475 -2 23 C-2.99 23 -3.98 23 -5 23 C-3.33333333 3.33333333 -3.33333333 3.33333333 0 0 Z " fill="#CCE7F0" transform="translate(95,25)"/>
<path d="M0 0 C1.9375 0.3125 1.9375 0.3125 4 1 C5.13094218 4.39282653 4.91668266 4.88996139 3.63671875 8.0546875 C3.32669922 8.83457031 3.01667969 9.61445312 2.69726562 10.41796875 C2.36404297 11.22878906 2.03082031 12.03960937 1.6875 12.875 C1.36587891 13.67808594 1.04425781 14.48117188 0.71289062 15.30859375 C-0.18323855 17.54247632 -1.09048039 19.77154438 -2 22 C-2.66776301 23.66622771 -3.33507951 25.33263592 -4 27 C-4.66 27 -5.32 27 -6 27 C-4.58823529 13.58823529 -4.58823529 13.58823529 -1 10 C-1.66 9.67 -2.32 9.34 -3 9 C-3 8.34 -3 7.68 -3 7 C-5.31 7 -7.62 7 -10 7 C-7.78877592 5.85343936 -5.670069 4.88490779 -3.3125 4.0625 C-2.549375 3.711875 -1.78625 3.36125 -1 3 C-0.67 2.01 -0.34 1.02 0 0 Z " fill="#9AE0EE" transform="translate(64,23)"/>
<path d="M0 0 C0.99 0 1.98 0 3 0 C2.67 4.29 2.34 8.58 2 13 C3.65 12.67 5.3 12.34 7 12 C7.99 8.37 8.98 4.74 10 1 C11.32 0.67 12.64 0.34 14 0 C13.01 5.28 12.02 10.56 11 16 C1.5495916 17.35005834 1.5495916 17.35005834 -0.83984375 15.828125 C-2.41205951 13.35069411 -2.1483047 11.94155028 -1.75 9.0625 C-1.64171875 8.20785156 -1.5334375 7.35320313 -1.421875 6.47265625 C-1.04706083 4.27582874 -0.57889638 2.15089949 0 0 Z " fill="#CBE5F1" transform="translate(134,32)"/>
<path d="M0 0 C2.375 1.3125 2.375 1.3125 3.08203125 3.06640625 C3.4374053 5.79094064 3.03622064 7.88586656 2.4375 10.5625 C2.24285156 11.45453125 2.04820312 12.3465625 1.84765625 13.265625 C1.69167969 13.94109375 1.53570312 14.6165625 1.375 15.3125 C0.055 15.6425 -1.265 15.9725 -2.625 16.3125 C-2.295 12.0225 -1.965 7.7325 -1.625 3.3125 C-6.70339119 4.66688896 -6.70339119 4.66688896 -7.76953125 7.9140625 C-7.98996094 8.91179688 -8.21039063 9.90953125 -8.4375 10.9375 C-8.67082031 11.94039062 -8.90414062 12.94328125 -9.14453125 13.9765625 C-9.30308594 14.74742188 -9.46164063 15.51828125 -9.625 16.3125 C-10.945 15.9825 -12.265 15.6525 -13.625 15.3125 C-12.635 10.6925 -11.645 6.0725 -10.625 1.3125 C-8.975 0.9825 -7.325 0.6525 -5.625 0.3125 C-2.625 -0.6875 -2.625 -0.6875 0 0 Z " fill="#CFE9F2" transform="translate(180.625,31.6875)"/>
<path d="M0 0 C0.19392201 5.52677733 -0.2520497 9.75614911 -2 15 C-2.99 15 -3.98 15 -5 15 C-4.85769192 13.58297487 -4.71099254 12.1663904 -4.5625 10.75 C-4.48128906 9.96109375 -4.40007812 9.1721875 -4.31640625 8.359375 C-4.02365007 6.17635361 -3.57935581 4.1226818 -3 2 C-4.98 2.33 -6.96 2.66 -9 3 C-9.99 6.63 -10.98 10.26 -12 14 C-13.32 14.33 -14.64 14.66 -16 15 C-15.01 9.72 -14.02 4.44 -13 -1 C-4 -2.125 -4 -2.125 0 0 Z " fill="#CEE7F0" transform="translate(165,33)"/>
<path d="M0 0 C0.33 0.99 0.66 1.98 1 3 C1.66 3 2.32 3 3 3 C3.33 4.65 3.66 6.3 4 8 C6.64 7.34 9.28 6.68 12 6 C11.54625 6.495 11.0925 6.99 10.625 7.5 C8.41840633 10.89475949 7.85608575 14.04883498 7 18 C6.34 18 5.68 18 5 18 C4.67 19.32 4.34 20.64 4 22 C3.34 22 2.68 22 2 22 C0.2958322 16.84053135 -0.22225605 12.5574667 -0.125 7.0625 C-0.11597656 6.37865234 -0.10695313 5.69480469 -0.09765625 4.99023438 C-0.07438958 3.32666713 -0.03853167 1.66328369 0 0 Z " fill="#64A9D4" transform="translate(17,22)"/>
<path d="M0 0 C0 0.99 0 1.98 0 3 C-2.31 2.67 -4.62 2.34 -7 2 C-7 2.66 -7 3.32 -7 4 C-5.88625 4.4125 -4.7725 4.825 -3.625 5.25 C-1.00679305 6.35546516 -0.16506911 6.74880787 1.4375 9.1875 C1.623125 9.785625 1.80875 10.38375 2 11 C-0.0625 13.5625 -0.0625 13.5625 -3 16 C-6.6875 16 -6.6875 16 -10 15 C-10.66 14.01 -11.32 13.02 -12 12 C-11.01 11.34 -10.02 10.68 -9 10 C-9 10.66 -9 11.32 -9 12 C-6.69 12 -4.38 12 -2 12 C-4.54456151 9.03134491 -7.48994665 7.6380249 -11 6 C-11.3125 3.6875 -11.3125 3.6875 -11 1 C-7.05502579 -2.59688825 -4.69422089 -2.07419063 0 0 Z " fill="#CCE5EF" transform="translate(254,33)"/>
<path d="M0 0 C0.33 0.99 0.66 1.98 1 3 C-2.50935186 3 -5.56484998 2.62457273 -9 2 C-9 5.3 -9 8.6 -9 12 C-7.35 12 -5.7 12 -4 12 C-3.34 11.34 -2.68 10.68 -2 10 C-1.01 10 -0.02 10 1 10 C0.34 11.65 -0.32 13.3 -1 15 C-4.92553223 15.92365464 -7.20286597 16.35616627 -10.9375 14.6875 C-13.64993626 11.15311336 -13.52106621 8.68862839 -13.46875 4.33984375 C-12.91991853 1.60025999 -12.16992618 0.70379389 -10 -1 C-6.31019675 -2.65404973 -3.58399522 -1.59288677 0 0 Z " fill="#CDE6EF" transform="translate(240,33)"/>
<path d="M0 0 C0.66 0.33 1.32 0.66 2 1 C1.67 2.65 1.34 4.3 1 6 C4.3 5.67 7.6 5.34 11 5 C12.10191901 9.40767604 11.58706842 10.8922935 10 15 C9.34 15 8.68 15 8 15 C8 12.03 8 9.06 8 6 C6.02 6.66 4.04 7.32 2 8 C2 8.66 2 9.32 2 10 C-13.95744681 15.95744681 -13.95744681 15.95744681 -23 15 C-16.15668132 10.43778754 -9.13990105 8.52515491 -1 8 C-0.67 5.36 -0.34 2.72 0 0 Z " fill="#74D7C6" transform="translate(53,11)"/>
<path d="M0 0 C1.3125 2.0625 1.3125 2.0625 2 4 C-0.31 4.66 -2.62 5.32 -5 6 C-5 5.34 -5 4.68 -5 4 C-7.64 4.33 -10.28 4.66 -13 5 C-13.33 5.99 -13.66 6.98 -14 8 C-19.22222222 11 -19.22222222 11 -22 11 C-21.814375 10.38125 -21.62875 9.7625 -21.4375 9.125 C-20.76313824 6.95839822 -20.76313824 6.95839822 -22 5 C-19.27581165 3.96378723 -16.54697784 2.94588063 -13.8125 1.9375 C-13.04357422 1.64294922 -12.27464844 1.34839844 -11.48242188 1.04492188 C-4.11076915 -1.64430766 -4.11076915 -1.64430766 0 0 Z " fill="#66A8C4" transform="translate(48,6)"/>
<path d="M0 0 C4.62 0 9.24 0 14 0 C13.67 0.99 13.34 1.98 13 3 C9.7 3 6.4 3 3 3 C3.01160156 4.05960938 3.02320313 5.11921875 3.03515625 6.2109375 C3.04453476 7.59895658 3.05363489 8.98697755 3.0625 10.375 C3.07087891 11.07367188 3.07925781 11.77234375 3.08789062 12.4921875 C3.11328125 17.7734375 3.11328125 17.7734375 2 20 C1.34 20 0.68 20 0 20 C0 13.4 0 6.8 0 0 Z " fill="#C9E4EF" transform="translate(188,27)"/>
<path d="M0 0 C0.99 0 1.98 0 3 0 C1.8587963 18.1412037 1.8587963 18.1412037 -3 23 C-6.125 23.125 -6.125 23.125 -9 23 C-8.505 21.515 -8.505 21.515 -8 20 C-6.68 20 -5.36 20 -4 20 C-3.87882812 19.2265625 -3.75765625 18.453125 -3.6328125 17.65625 C-2.67147688 11.68117941 -1.57340459 5.84407421 0 0 Z " fill="#CAE5EF" transform="translate(77,32)"/>
<path d="M0 0 C0.66 0.66 1.32 1.32 2 2 C-1.66389839 6.7630679 -1.66389839 6.7630679 -5.13671875 7.37890625 C-6.81241997 7.46255639 -8.48820803 7.54447846 -10.1640625 7.625 C-15.4705388 8.32668282 -20.15929318 10.81910317 -25 13 C-25.99 13.33 -26.98 13.66 -28 14 C-27 11 -27 11 -25.16162109 9.97265625 C-24.37352051 9.67230469 -23.58541992 9.37195312 -22.7734375 9.0625 C-21.90589844 8.72476562 -21.03835937 8.38703125 -20.14453125 8.0390625 C-19.23058594 7.69617188 -18.31664062 7.35328125 -17.375 7 C-15.5908753 6.31320236 -13.80701615 5.62571444 -12.0234375 4.9375 C-11.16975586 4.61136719 -10.31607422 4.28523438 -9.43652344 3.94921875 C-6.25484235 2.70970211 -3.12710927 1.37078762 0 0 Z " fill="#DCF2FC" transform="translate(50,12)"/>
<path d="M0 0 C0 0.99 0 1.98 0 3 C-1.98 3.66 -3.96 4.32 -6 5 C-6 5.66 -6 6.32 -6 7 C-10.29 7.66 -14.58 8.32 -19 9 C-19 8.01 -19 7.02 -19 6 C-16.58660204 4.99141578 -14.16981325 3.99297327 -11.75 3 C-11.06808594 2.71382812 -10.38617188 2.42765625 -9.68359375 2.1328125 C-6.18584265 0.70654506 -3.83099811 0 0 0 Z " fill="#9BD9EB" transform="translate(57,24)"/>
<path d="M0 0 C0.66 0 1.32 0 2 0 C2 1.65 2 3.3 2 5 C0.73308493 5.67408308 -0.53870749 6.33900497 -1.8125 7 C-2.52019531 7.37125 -3.22789063 7.7425 -3.95703125 8.125 C-6 9 -6 9 -9 9 C-9 8.01 -9 7.02 -9 6 C-10.98 6 -12.96 6 -15 6 C-14.34 4.68 -13.68 3.36 -13 2 C-13 2.66 -13 3.32 -13 4 C-11.783125 3.67 -10.56625 3.34 -9.3125 3 C-6.12789396 2.19677787 -3.3027157 1.79358027 0 2 C0 1.34 0 0.68 0 0 Z " fill="#68BBDC" transform="translate(51,29)"/>
<path d="M0 0 C0.598125 0.226875 1.19625 0.45375 1.8125 0.6875 C1.8125 1.3475 1.8125 2.0075 1.8125 2.6875 C2.8025 3.3990625 2.8025 3.3990625 3.8125 4.125 C4.4725 4.640625 5.1325 5.15625 5.8125 5.6875 C5.8125 6.6775 5.8125 7.6675 5.8125 8.6875 C3.8325 9.6775 3.8325 9.6775 1.8125 10.6875 C2.4725 9.0375 3.1325 7.3875 3.8125 5.6875 C2.8225 6.3475 1.8325 7.0075 0.8125 7.6875 C0.8125 8.6775 0.8125 9.6675 0.8125 10.6875 C-0.1775 10.6875 -1.1675 10.6875 -2.1875 10.6875 C-2.1875 9.0375 -2.1875 7.3875 -2.1875 5.6875 C-3.8375 6.0175 -5.4875 6.3475 -7.1875 6.6875 C-3.9375 -0.5625 -3.9375 -0.5625 0 0 Z " fill="#68C0EA" transform="translate(33.1875,36.3125)"/>
<path d="M0 0 C1.216875 0.12375 2.43375 0.2475 3.6875 0.375 C2.6975 0.87 2.6975 0.87 1.6875 1.375 C1.3575 2.365 1.0275 3.355 0.6875 4.375 C-1.89322903 6.69765612 -2.76426068 7.375 -6.3125 7.375 C-6.3125 8.035 -6.3125 8.695 -6.3125 9.375 C-6.9725 9.375 -7.6325 9.375 -8.3125 9.375 C-8.6425 11.355 -8.9725 13.335 -9.3125 15.375 C-10.3025 15.705 -11.2925 16.035 -12.3125 16.375 C-12.3125 15.715 -12.3125 15.055 -12.3125 14.375 C-11.6525 14.375 -10.9925 14.375 -10.3125 14.375 C-10.250625 13.17875 -10.18875 11.9825 -10.125 10.75 C-9.32486781 4.67332036 -6.70671211 0.02378267 0 0 Z " fill="#40C3BD" transform="translate(34.3125,25.625)"/>
<path d="M0 0 C0.66 0.66 1.32 1.32 2 2 C0.5404114 5.8480063 -1.33899114 7.21206544 -5 9 C-7.8125 9.6875 -7.8125 9.6875 -10 10 C-9.67 7.03 -9.34 4.06 -9 1 C-8.67 1.99 -8.34 2.98 -8 4 C-5.36 2.68 -2.72 1.36 0 0 Z " fill="#46AEF0" transform="translate(29,60)"/>
<path d="M0 0 C2 3 2 3 1.6875 5.75 C1.460625 6.8225 1.23375 7.895 1 9 C0.36060993 13.04947043 -0.12429206 16.8983619 0 21 C-2.66782556 18.33217444 -2.59610663 16.39395116 -3.125 12.6875 C-3.29257813 11.55699219 -3.46015625 10.42648438 -3.6328125 9.26171875 C-3.94757121 6.46572381 -4.07376764 3.80843941 -4 1 C-3.01 1.33 -2.02 1.66 -1 2 C-0.67 1.34 -0.34 0.68 0 0 Z " fill="#144DA9" transform="translate(15,24)"/>
<path d="M0 0 C0 3.79967569 -0.54792427 6.60037637 -1.5 10.25 C-1.7784375 11.32765625 -2.056875 12.4053125 -2.34375 13.515625 C-2.5603125 14.33546875 -2.776875 15.1553125 -3 16 C-5.14234045 14.2724894 -5.93142272 13.37563053 -6.43359375 10.625 C-6.43488281 9.75875 -6.43617187 8.8925 -6.4375 8 C-6.45683594 7.13375 -6.47617187 6.2675 -6.49609375 5.375 C-6 3 -6 3 -4.09765625 1.1875 C-2 0 -2 0 0 0 Z " fill="#1C7A88" transform="translate(24,45)"/>
<path d="M0 0 C-0.99 0.33 -1.98 0.66 -3 1 C-3.33 1.99 -3.66 2.98 -4 4 C-6.6171875 5.38671875 -6.6171875 5.38671875 -9.875 6.6875 C-11.47988281 7.34298828 -11.47988281 7.34298828 -13.1171875 8.01171875 C-16 9 -16 9 -19 9 C-18.72045898 7.10864258 -18.72045898 7.10864258 -18 5 C-15.32431963 3.68141997 -12.86084203 2.65252893 -10.0625 1.6875 C-9.32064453 1.41099609 -8.57878906 1.13449219 -7.81445312 0.84960938 C-2.28278202 -1.14139101 -2.28278202 -1.14139101 0 0 Z " fill="#AFDFF4" transform="translate(47,12)"/>
<path d="M0 0 C0.99 0 1.98 0 3 0 C2.57910004 5.60461531 2.08386889 10.72086547 0 16 C-0.99 16 -1.98 16 -3 16 C-2.68954268 14.0830014 -2.37655329 12.16641277 -2.0625 10.25 C-1.88847656 9.18265625 -1.71445313 8.1153125 -1.53515625 7.015625 C-1.11295829 4.63652407 -0.62797116 2.33084789 0 0 Z " fill="#CEE8F3" transform="translate(85,32)"/>
<path d="M0 0 C1.32 0.33 2.64 0.66 4 1 C3.67 2.65 3.34 4.3 3 6 C2.34 6 1.68 6 1 6 C0.67 6.99 0.34 7.98 0 9 C-0.66 8.67 -1.32 8.34 -2 8 C-2 7.34 -2 6.68 -2 6 C-4.31 6 -6.62 6 -9 6 C-6.06279492 4.47700477 -3.0831351 3.19899698 0 2 C0 1.34 0 0.68 0 0 Z " fill="#87DFFA" transform="translate(63,24)"/>
<path d="M0 0 C0.33 0 0.66 0 1 0 C1.66 5.61 2.32 11.22 3 17 C2.01 17 1.02 17 0 17 C-1.77204606 11.05843378 -2.93083614 5.86167229 0 0 Z " fill="#073E9D" transform="translate(16,31)"/>
<path d="M0 0 C0.33 0.66 0.66 1.32 1 2 C1.556875 1.814375 2.11375 1.62875 2.6875 1.4375 C5.399133 0.92448835 7.34371039 1.3359276 10 2 C7 4 7 4 5 4 C5 5.65 5 7.3 5 9 C4.34 8.67 3.68 8.34 3 8 C2.34 8.66 1.68 9.32 1 10 C-1.29404844 6.55892734 -1.26293056 5.03160191 -1 1 C-0.67 0.67 -0.34 0.34 0 0 Z " fill="#2C89C9" transform="translate(12,18)"/>
<path d="M0 0 C-0.9375 1.875 -0.9375 1.875 -3 4 C-5.26788269 4.73062143 -7.49917443 5.18735277 -9.84375 5.60546875 C-12.17184644 5.97932839 -12.17184644 5.97932839 -15 7 C-14.80078125 5.14453125 -14.80078125 5.14453125 -14 3 C-11.85546875 1.69921875 -11.85546875 1.69921875 -9.1875 0.6875 C-8.31480469 0.34074219 -7.44210938 -0.00601562 -6.54296875 -0.36328125 C-3.87565557 -1.03113386 -2.55113218 -0.92173773 0 0 Z " fill="#51A6D3" transform="translate(28,13)"/>
<path d="M0 0 C0 1.98 0 3.96 0 6 C-0.33 5.01 -0.66 4.02 -1 3 C-4.72602572 2.85095897 -7.62875452 2.87625151 -11.1875 4.0625 C-14.18641759 5.0621392 -15.09561052 4.88935267 -18 4 C-11.72207717 -0.28917186 -7.48664799 -1.78759207 0 0 Z " fill="#62BEF4" transform="translate(55,51)"/>
<path d="M0 0 C-6.94044706 4.62696471 -12.84885643 5.4509854 -21 5 C-14.32505312 0.55003542 -7.91560783 -0.15831216 0 0 Z " fill="#44E3C8" transform="translate(51,21)"/>
<path d="M0 0 C0 2.97 0 5.94 0 9 C-4.12615036 7.96846241 -5.8459821 6.71595986 -9 4 C-8.01 4 -7.02 4 -6 4 C-6 3.34 -6 2.68 -6 2 C-2.25 0 -2.25 0 0 0 Z " fill="#3DF4CE" transform="translate(61,17)"/>
<path d="M0 0 C-3.19420423 3.48771905 -6.78128962 4.9103287 -11.0625 6.75 C-11.79533203 7.07871094 -12.52816406 7.40742187 -13.28320312 7.74609375 C-15.16135987 8.56358346 -17.07890468 9.28925744 -19 10 C-19.66 9.67 -20.32 9.34 -21 9 C-7.64305177 -0.49046322 -7.64305177 -0.49046322 0 0 Z " fill="#3787BF" transform="translate(50,58)"/>
<path d="M0 0 C0.66 0.99 1.32 1.98 2 3 C-0.0625 5.5625 -0.0625 5.5625 -3 8 C-6.6875 8 -6.6875 8 -10 7 C-10.66 6.01 -11.32 5.02 -12 4 C-11.01 3.34 -10.02 2.68 -9 2 C-9 2.66 -9 3.32 -9 4 C-6.03 4 -3.06 4 0 4 C0 2.68 0 1.36 0 0 Z " fill="#C4DCE5" transform="translate(254,41)"/>
<path d="M0 0 C0 1.32 0 2.64 0 4 C-0.515625 3.79375 -1.03125 3.5875 -1.5625 3.375 C-5.00759148 2.84498593 -7.69447423 4.02058496 -11 5 C-11.66 4.67 -12.32 4.34 -13 4 C-9.47163989 -0.27117276 -5.24714378 -0.14991839 0 0 Z " fill="#53B7F4" transform="translate(40,56)"/>
<path d="M0 0 C2.375 0.25 2.375 0.25 3.375 1.25 C3.51615161 3.92058851 3.41747107 6.57432238 3.375 9.25 C1.395 9.25 -0.585 9.25 -2.625 9.25 C-1.305 7.6 0.015 5.95 1.375 4.25 C0.385 4.25 -0.605 4.25 -1.625 4.25 C-2.96481486 3.9437566 -4.30011887 3.61548445 -5.625 3.25 C-3.7774876 0.91630013 -3.0311278 0.28867884 0 0 Z " fill="#D6F0F2" transform="translate(49.625,9.75)"/>
<path d="M0 0 C0 0.99 0 1.98 0 3 C-7.28571429 6.42857143 -7.28571429 6.42857143 -12 6 C-11.34 5.67 -10.68 5.34 -10 5 C-10 4.34 -10 3.68 -10 3 C-6.27034861 0.96564469 -4.33094958 0 0 0 Z " fill="#B4EBF7" transform="translate(57,24)"/>
<path d="M0 0 C0.66 0.66 1.32 1.32 2 2 C1.01 4.31 0.02 6.62 -1 9 C-1.33 8.34 -1.66 7.68 -2 7 C-3.65 7.66 -5.3 8.32 -7 9 C-7.33 7.02 -7.66 5.04 -8 3 C-7.67 3.99 -7.34 4.98 -7 6 C-3.73539027 4.19587357 -2.11070205 3.16605307 0 0 Z " fill="#2C82A3" transform="translate(26,38)"/>
<path d="M0 0 C0.66 0.66 1.32 1.32 2 2 C0.35 3.65 -1.3 5.3 -3 7 C-6 6 -6 6 -8 4 C-5.53721199 1.53721199 -3.29323018 1.00228745 0 0 Z " fill="#EAF9FD" transform="translate(50,12)"/>
<path d="M0 0 C0.66 0.33 1.32 0.66 2 1 C1.67 4.3 1.34 7.6 1 11 C-0.32 10.67 -1.64 10.34 -3 10 C-2.69201674 8.51988629 -2.378482 7.04092675 -2.0625 5.5625 C-1.88847656 4.73878906 -1.71445313 3.91507813 -1.53515625 3.06640625 C-1 1 -1 1 0 0 Z " fill="#D0E8F4" transform="translate(107,37)"/>
<path d="M0 0 C0.33 0.99 0.66 1.98 1 3 C1.66 3 2.32 3 3 3 C3.33 4.65 3.66 6.3 4 8 C5.65 7.67 7.3 7.34 9 7 C8.1875 9.4375 8.1875 9.4375 7 12 C6.01 12.33 5.02 12.66 4 13 C3.01 10.69 2.02 8.38 1 6 C0.67 6 0.34 6 0 6 C0 4.02 0 2.04 0 0 Z " fill="#7DB4DD" transform="translate(17,22)"/>
<path d="M0 0 C0 1.32 0 2.64 0 4 C-1.32 4.33 -2.64 4.66 -4 5 C-4 4.34 -4 3.68 -4 3 C-6.64 3.33 -9.28 3.66 -12 4 C-8.35616205 0.00912986 -5.26350451 -0.11696677 0 0 Z " fill="#4BC0E8" transform="translate(47,7)"/>
<path d="M0 0 C0.66 0 1.32 0 2 0 C1.125 6.875 1.125 6.875 0 8 C-0.36760731 10.32817964 -0.70241581 12.6618385 -1 15 C-1.66 15 -2.32 15 -3 15 C-2.44854729 9.76119922 -1.57077907 5.02649303 0 0 Z " fill="#88DFF7" transform="translate(61,35)"/>
<path d="M0 0 C0.33 0.66 0.66 1.32 1 2 C1.66 2 2.32 2 3 2 C3.66 4.97 4.32 7.94 5 11 C4.01 11.33 3.02 11.66 2 12 C0.70756464 7.8803623 -0.26252625 4.33168317 0 0 Z " fill="#588CCD" transform="translate(17,32)"/>
<path d="M0 0 C2.9375 0.8125 2.9375 0.8125 6 2 C6.33 2.99 6.66 3.98 7 5 C3 5 -1 5 -5 5 C-3.625 3.5 -3.625 3.5 -2 2 C-1.34 2 -0.68 2 0 2 C0 1.34 0 0.68 0 0 Z " fill="#C8DEE8" transform="translate(234,31)"/>
<path d="M0 0 C-1 3 -1 3 -2.8125 4.1875 C-5 5 -5 5 -9 5 C-6.81610567 0.16423399 -5.20641855 -0.13701101 0 0 Z " fill="#176C85" transform="translate(52,32)"/>
<path d="M0 0 C0.33 0 0.66 0 1 0 C1.1953125 6.0546875 1.1953125 6.0546875 1 8 C0.34 8.66 -0.32 9.32 -1 10 C-1.66 9.67 -2.32 9.34 -3 9 C-3.33 9.66 -3.66 10.32 -4 11 C-3.39301257 6.87248551 -1.96189209 3.6678852 0 0 Z " fill="#C4E1EC" transform="translate(223,36)"/>
<path d="M0 0 C-1 3 -1 3 -3.9375 4.6875 C-7 6 -7 6 -9 6 C-8.75 4.125 -8.75 4.125 -8 2 C-5.06004981 -0.02755186 -3.72295997 0 0 0 Z " fill="#B0E9FB" transform="translate(35,11)"/>
<path d="M0 0 C0.66 0.33 1.32 0.66 2 1 C1.34 3.97 0.68 6.94 0 10 C-0.66 10 -1.32 10 -2 10 C-2 7.03 -2 4.06 -2 1 C-1.34 0.67 -0.68 0.34 0 0 Z " fill="#66E8D4" transform="translate(63,16)"/>
<path d="M0 0 C2.97 0 5.94 0 9 0 C8.67 0.99 8.34 1.98 8 3 C4.7 3 1.4 3 -2 3 C-1.34 2.67 -0.68 2.34 0 2 C0 1.34 0 0.68 0 0 Z " fill="#D3EEF7" transform="translate(190,45)"/>
<path d="M0 0 C0.6875 1.8125 0.6875 1.8125 1 4 C-0.4375 5.75 -0.4375 5.75 -2 7 C-2.99 6.67 -3.98 6.34 -5 6 C-5 5.01 -5 4.02 -5 3 C-4.34 3 -3.68 3 -3 3 C-3 2.34 -3 1.68 -3 1 C-2.01 0.67 -1.02 0.34 0 0 Z " fill="#178C85" transform="translate(31,32)"/>
<path d="M0 0 C2 3 2 3 1.625 5.1875 C1.41875 5.785625 1.2125 6.38375 1 7 C0.67 6.34 0.34 5.68 0 5 C-0.99 6.32 -1.98 7.64 -3 9 C-3.33 6.36 -3.66 3.72 -4 1 C-3.01 1.33 -2.02 1.66 -1 2 C-0.67 1.34 -0.34 0.68 0 0 Z " fill="#225DAB" transform="translate(15,24)"/>
<path d="M0 0 C-0.33 0.99 -0.66 1.98 -1 3 C-3.97 3 -6.94 3 -10 3 C-10 2.34 -10 1.68 -10 1 C-6.78548731 -0.60725635 -3.56387464 -0.05748185 0 0 Z " fill="#BEDBE3" transform="translate(202,27)"/>
<path d="M0 0 C-0.97382182 2.51570636 -1.46151135 3.73944098 -3.9375 4.9375 C-6 5 -6 5 -7.75 3.5625 C-8.1625 3.046875 -8.575 2.53125 -9 2 C-5.86501708 0.14223235 -3.62528568 -0.20140476 0 0 Z " fill="#30A5D6" transform="translate(44,9)"/>
<path d="M0 0 C-2.22825644 2.22825644 -3.65761628 2.69239369 -6.625 3.625 C-7.44226563 3.88539062 -8.25953125 4.14578125 -9.1015625 4.4140625 C-9.72804688 4.60742188 -10.35453125 4.80078125 -11 5 C-10.67 3.68 -10.34 2.36 -10 1 C-6.59437148 0.22157062 -3.49234244 -0.09978121 0 0 Z " fill="#317BC5" transform="translate(29,68)"/>
<path d="M0 0 C0.8971875 0.309375 0.8971875 0.309375 1.8125 0.625 C0.8225 0.955 -0.1675 1.285 -1.1875 1.625 C-0.8575 2.945 -0.5275 4.265 -0.1875 5.625 C-0.8475 5.625 -1.5075 5.625 -2.1875 5.625 C-2.1875 4.965 -2.1875 4.305 -2.1875 3.625 C-4.4975 3.625 -6.8075 3.625 -9.1875 3.625 C-8.2903125 3.191875 -8.2903125 3.191875 -7.375 2.75 C-1.52083333 -0.26071429 -1.52083333 -0.26071429 0 0 Z " fill="#80D2FA" transform="translate(63.1875,26.375)"/>
<path d="M0 0 C2 3 2 3 2 6 C2.66 6 3.32 6 4 6 C4 6.66 4 7.32 4 8 C2.35 8.33 0.7 8.66 -1 9 C-0.67 6.03 -0.34 3.06 0 0 Z " fill="#429DE0" transform="translate(20,61)"/>
<path d="M0 0 C0.66 0.33 1.32 0.66 2 1 C1.88601335 2.62580966 1.75844341 4.25067157 1.625 5.875 C1.52058594 7.23238281 1.52058594 7.23238281 1.4140625 8.6171875 C1 11 1 11 -1 13 C-1.02686553 11.02090602 -1.04633375 9.04171029 -1.0625 7.0625 C-1.07410156 5.96035156 -1.08570313 4.85820313 -1.09765625 3.72265625 C-1 1 -1 1 0 0 Z " fill="#7AD3F9" transform="translate(57,40)"/>
<path d="M0 0 C-0.99 0 -1.98 0 -3 0 C-3.33 0.99 -3.66 1.98 -4 3 C-6.64 3 -9.28 3 -12 3 C-4.82142857 -1.78571429 -4.82142857 -1.78571429 0 0 Z " fill="#75D5D4" transform="translate(42,23)"/>
<path d="M0 0 C1.9375 0.8125 1.9375 0.8125 4 2 C4.33 2.99 4.66 3.98 5 5 C4.01 5.33 3.02 5.66 2 6 C-0.6875 4.0625 -0.6875 4.0625 -3 2 C-2.01 2 -1.02 2 0 2 C0 1.34 0 0.68 0 0 Z " fill="#35F2BF" transform="translate(55,19)"/>
<path d="M0 0 C0.99 0.66 1.98 1.32 3 2 C-0.96 3.65 -4.92 5.3 -9 7 C-9 6.34 -9 5.68 -9 5 C-6.03 3.35 -3.06 1.7 0 0 Z " fill="#489AC5" transform="translate(35,12)"/>
<path d="M0 0 C3 3 3 3 3.1875 5.6875 C3.0946875 6.8321875 3.0946875 6.8321875 3 8 C2.01 8.33 1.02 8.66 0 9 C0 6.03 0 3.06 0 0 Z " fill="#105FA6" transform="translate(15,46)"/>
<path d="M0 0 C1.11375 0.1546875 1.11375 0.1546875 2.25 0.3125 C0.4375 2.3125 0.4375 2.3125 -1.75 4.3125 C-2.74 4.3125 -3.73 4.3125 -4.75 4.3125 C-4.75 4.9725 -4.75 5.6325 -4.75 6.3125 C-5.41 5.9825 -6.07 5.6525 -6.75 5.3125 C-3.42692308 0.38942308 -3.42692308 0.38942308 0 0 Z " fill="#29C2A8" transform="translate(32.75,28.6875)"/>
<path d="M0 0 C2.97 0 5.94 0 9 0 C8.67 0.66 8.34 1.32 8 2 C5.35139573 2.59355614 2.70802678 2.74209269 0 3 C0 2.01 0 1.02 0 0 Z " fill="#45ABEF" transform="translate(42,56)"/>
<path d="M0 0 C0.99 0 1.98 0 3 0 C2.74438677 2.3431213 2.40729228 4.67843403 2 7 C1.01 7.495 1.01 7.495 0 8 C0 5.36 0 2.72 0 0 Z " fill="#157480" transform="translate(20,50)"/>
<path d="M0 0 C2.475 0.495 2.475 0.495 5 1 C4.6875 2.9375 4.6875 2.9375 4 5 C3.01 5.33 2.02 5.66 1 6 C0.67 4.02 0.34 2.04 0 0 Z " fill="#50AEE1" transform="translate(49,53)"/>
<path d="M0 0 C1.32 0.33 2.64 0.66 4 1 C3.67 2.65 3.34 4.3 3 6 C2.01 6 1.02 6 0 6 C0 4.02 0 2.04 0 0 Z " fill="#6599C4" transform="translate(31,41)"/>
<path d="M0 0 C1.32 0.33 2.64 0.66 4 1 C4 1.99 4 2.98 4 4 C2.02 4.99 2.02 4.99 0 6 C0 4.02 0 2.04 0 0 Z " fill="#C6E0EB" transform="translate(152,32)"/>
<path d="M0 0 C2.31 0 4.62 0 7 0 C5.02579865 2.52259061 4.03254358 2.9929808 0.8125 3.6875 C-0.5796875 3.8421875 -0.5796875 3.8421875 -2 4 C-2 3.34 -2 2.68 -2 2 C-1.34 2 -0.68 2 0 2 C0 1.34 0 0.68 0 0 Z " fill="#98CCE5" transform="translate(23,26)"/>
<path d="M0 0 C0.99 0.33 1.98 0.66 3 1 C3 1.99 3 2.98 3 4 C2.01 4.33 1.02 4.66 0 5 C-0.5625 3.0625 -0.5625 3.0625 -1 1 C-0.67 0.67 -0.34 0.34 0 0 Z " fill="#CDE5EE" transform="translate(79,25)"/>
<path d="M0 0 C0.99 0.33 1.98 0.66 3 1 C3 1.99 3 2.98 3 4 C2.01 4.33 1.02 4.66 0 5 C-0.5625 3.0625 -0.5625 3.0625 -1 1 C-0.67 0.67 -0.34 0.34 0 0 Z " fill="#CDE4ED" transform="translate(87,25)"/>
<path d="" fill="#000000" transform="translate(0,0)"/>
<path d="" fill="#000000" transform="translate(0,0)"/>
<path d="" fill="#000000" transform="translate(0,0)"/>
<path d="" fill="#000000" transform="translate(0,0)"/>
<path d="" fill="#000000" transform="translate(0,0)"/>
<path d="" fill="#000000" transform="translate(0,0)"/>
<path d="" fill="#000000" transform="translate(0,0)"/>
<path d="" fill="#000000" transform="translate(0,0)"/>
<path d="" fill="#000000" transform="translate(0,0)"/>
<path d="" fill="#FF0000" transform="translate(0,0)"/>
<path d="" fill="#000000" transform="translate(0,0)"/>
<path d="" fill="#000000" transform="translate(0,0)"/>
<path d="" fill="#000000" transform="translate(0,0)"/>
<path d="" fill="#000000" transform="translate(0,0)"/>
<path d="" fill="#000000" transform="translate(0,0)"/>
<path d="" fill="#000000" transform="translate(0,0)"/>
<path d="" fill="#000000" transform="translate(0,0)"/>
<path d="" fill="#000000" transform="translate(0,0)"/>
<path d="" fill="#000000" transform="translate(0,0)"/>
<path d="" fill="#000000" transform="translate(0,0)"/>
<path d="" fill="#000000" transform="translate(0,0)"/>
<path d="" fill="#000000" transform="translate(0,0)"/>
<path d="" fill="#000000" transform="translate(0,0)"/>
<path d="" fill="#000000" transform="translate(0,0)"/>
<path d="" fill="#000000" transform="translate(0,0)"/>
<path d="" fill="#000000" transform="translate(0,0)"/>
<path d="" fill="#000000" transform="translate(0,0)"/>
<path d="" fill="#000000" transform="translate(0,0)"/>
<path d="" fill="#000000" transform="translate(0,0)"/>
<path d="" fill="#000000" transform="translate(0,0)"/>
<path d="" fill="#000000" transform="translate(0,0)"/>
<path d="" fill="#000000" transform="translate(0,0)"/>
<path d="" fill="#000000" transform="translate(0,0)"/>
<path d="" fill="#000000" transform="translate(0,0)"/>
<path d="" fill="#000000" transform="translate(0,0)"/>
<path d="" fill="#000000" transform="translate(0,0)"/>
<path d="" fill="#000000" transform="translate(0,0)"/>
<path d="" fill="#000000" transform="translate(0,0)"/>
<path d="" fill="#000000" transform="translate(0,0)"/>
<path d="" fill="#000000" transform="translate(0,0)"/>
<path d="" fill="#000000" transform="translate(0,0)"/>
<path d="" fill="#000000" transform="translate(0,0)"/>
<path d="" fill="#000000" transform="translate(0,0)"/>
<path d="" fill="#000000" transform="translate(0,0)"/>
<path d="" fill="#000000" transform="translate(0,0)"/>
<path d="" fill="#000000" transform="translate(0,0)"/>
<path d="" fill="#000000" transform="translate(0,0)"/>
<path d="" fill="#000000" transform="translate(0,0)"/>
<path d="" fill="#000000" transform="translate(0,0)"/>
<path d="" fill="#000000" transform="translate(0,0)"/>
<path d="" fill="#000000" transform="translate(0,0)"/>
<path d="" fill="#000000" transform="translate(0,0)"/>
<path d="" fill="#000000" transform="translate(0,0)"/>
<path d="" fill="#000000" transform="translate(0,0)"/>
<path d="" fill="#000000" transform="translate(0,0)"/>
<path d="" fill="#000000" transform="translate(0,0)"/>
<path d="" fill="#000000" transform="translate(0,0)"/>
<path d="" fill="#000000" transform="translate(0,0)"/>
<path d="" fill="#000000" transform="translate(0,0)"/>
<path d="" fill="#000000" transform="translate(0,0)"/>
<path d="" fill="#000000" transform="translate(0,0)"/>
<path d="" fill="#000000" transform="translate(0,0)"/>
<path d="" fill="#000000" transform="translate(0,0)"/>
<path d="" fill="#000000" transform="translate(0,0)"/>
</svg>
